<?xml version="1.0" encoding="UTF-8"?>
<svg version="1.1" xmlns="http://www.w3.org/2000/svg" width="1024" height="1024">
<path d="M0 0 C337.92 0 675.84 0 1024 0 C1024 337.92 1024 675.84 1024 1024 C686.08 1024 348.16 1024 0 1024 C0 686.08 0 348.16 0 0 Z " fill="#00000A" transform="translate(0,0)"/>
<path d="M0 0 C3.64217768 1.32442825 6.35351902 3.27010212 8.9375 6.1875 C10.50959461 10.34892691 10.86692281 13.62327349 10 18 C4.91180505 26.97542214 -4.04561925 34.3122489 -11.30126953 41.52832031 C-12.75272894 42.97921479 -14.20374654 44.43055136 -15.65435791 45.8822937 C-19.5753093 49.80381668 -23.50237825 53.71916036 -27.43060541 57.63339329 C-31.54782032 61.73805717 -35.65932585 65.84843203 -39.77145386 69.95819092 C-47.556312 77.73684279 -55.34625058 85.510386 -63.13804805 93.28208613 C-71.99139083 102.1130853 -80.83906841 110.94975099 -89.68626237 119.78690958 C-104.80757879 134.89087565 -119.93312242 149.99059755 -135.06338501 165.08560181 C-135.7017381 165.72247571 -136.34009119 166.35934961 -136.99778831 167.01552272 C-138.16969591 168.18469101 -139.34163281 169.35382994 -140.51360714 170.52293134 C-142.93560227 172.9391947 -145.35642026 175.35659444 -147.77496147 177.7763176 C-149.10211975 179.102667 -150.43346845 180.42487546 -151.7734375 181.73828125 C-154.70630265 184.62107309 -157.51587017 187.55222302 -160.1875 190.6796875 C-164.15586456 195.23893954 -168.35404883 199.5377759 -172.625 203.8125 C-173.36234375 204.56208984 -174.0996875 205.31167969 -174.859375 206.08398438 C-175.57867187 206.80521484 -176.29796875 207.52644531 -177.0390625 208.26953125 C-177.68053223 208.91510986 -178.32200195 209.56068848 -178.98291016 210.22583008 C-182.30359784 213.14660439 -184.95961963 214.86513588 -189.375 215.4375 C-193.73513905 214.91127632 -196.62291485 213.80114815 -200 211 C-202.73427468 207.20729641 -203.94587386 203.21383749 -203.8046875 198.5546875 C-202.11121774 193.17833203 -197.39042145 189.32515498 -193.44970703 185.45898438 C-190.65017077 182.64153259 -188.13437933 179.56713085 -185.55859375 176.546875 C-184 175 -184 175 -182 175 C-181.76063721 174.43466553 -181.52127441 173.86933105 -181.2746582 173.28686523 C-179.72937575 170.51447283 -177.86486863 168.63981213 -175.60546875 166.41015625 C-174.73212891 165.54326172 -173.85878906 164.67636719 -172.95898438 163.78320312 C-172.04439453 162.88537109 -171.12980469 161.98753906 -170.1875 161.0625 C-169.28451172 160.16853516 -168.38152344 159.27457031 -167.45117188 158.35351562 C-165.76033312 156.68006977 -164.06744422 155.00869095 -162.37182617 153.34008789 C-157.85776968 148.88643565 -153.38858225 144.38742839 -148.90742493 139.9006958 C-147.67102882 138.66283349 -146.43462931 137.42497457 -145.19822693 136.18711853 C-144.21477452 135.20250295 -144.21477452 135.20250295 -143.21145439 134.19799614 C-128.13541242 119.10429207 -113.05653205 104.01342633 -97.97601032 88.92419815 C-89.25828665 80.20130626 -80.54151109 71.47747075 -71.8269043 62.75146484 C-64.2180031 55.13261601 -56.60736275 47.51550957 -48.99460381 39.90051532 C-44.96579411 35.87039961 -40.93787584 31.83940177 -36.91204262 27.80631256 C-33.13116348 24.01867243 -29.34797332 20.23335652 -25.56295776 16.44985008 C-24.17127809 15.05789421 -22.78046182 13.6650745 -21.39055443 12.27134895 C-19.49986515 10.37571855 -17.60615564 8.48315888 -15.71162415 6.59136963 C-15.15667292 6.03350557 -14.6017217 5.4756415 -14.02995378 4.90087247 C-9.48465154 0.37345576 -6.45427601 -0.83882287 0 0 Z " fill="#FAFBFB" transform="translate(478,278)"/>
<path d="M0 0 C0.90105469 -0.06316406 1.80210937 -0.12632812 2.73046875 -0.19140625 C11.34793542 1.91654187 18.62665365 12.24608109 24.69921875 18.3515625 C25.72933733 19.38355193 26.75968118 20.41531653 27.79023743 21.4468689 C30.48165202 24.14206893 33.1700518 26.84025604 35.85778809 29.53912354 C38.58891705 32.28050464 41.3228931 35.01904309 44.05664062 37.7578125 C48.86694105 42.57763458 53.67476647 47.39991112 58.48075867 52.22402954 C60.92227471 54.67259151 63.36694167 57.11797585 65.8125 59.5625 C68.09375873 61.84375873 70.37488982 64.12509814 72.65234375 66.41015625 C73.92554405 67.67875185 75.20632185 68.9399505 76.50390625 70.18359375 C77.64099752 71.27533095 78.73321458 72.41358327 79.8125 73.5625 C79.8125 74.2225 79.8125 74.8825 79.8125 75.5625 C80.4725 75.5625 81.1325 75.5625 81.8125 75.5625 C83.20844269 76.97844696 83.20844269 76.97844696 84.84973145 78.96862793 C89.06463063 83.92044338 93.60670039 88.48230603 98.21679688 93.06445312 C99.6234174 94.46883215 101.03003779 95.87321131 102.43665314 97.27759552 C103.93423928 98.77183218 105.4330668 100.26481312 106.93226624 101.75743103 C110.07120471 104.88273236 113.2062228 108.01194707 116.34069824 111.14172363 C122.99499259 117.78496494 129.65351788 124.42395808 136.3125 131.0625 C143.50394727 138.23187262 150.69463928 145.40199333 157.88044214 152.57702398 C160.989748 155.68137961 164.10146743 158.78328835 167.21512604 161.88327789 C168.68814607 163.35060234 170.15999103 164.81909363 171.6313324 166.2881012 C173.41579714 168.06972233 175.20203712 169.84956813 176.99049377 171.62718201 C181.29388553 175.930194 185.44257001 180.3023366 189.3990097 184.92758942 C191.07199387 186.86264304 192.84553358 188.66344018 194.6875 190.4375 C198.27333657 193.8946967 198.99588928 195.85327241 199.125 200.875 C199.09027152 204.66536521 198.97716421 206.27433764 197.0625 209.625 C192.78322544 213.30993087 189.10213803 214.24882872 183.50276184 214.02072144 C180.50549157 213.51020849 179.50703916 212.89736684 177.31518555 210.85205078 C176.62701752 210.21293762 175.93884949 209.57382446 175.22982788 208.91534424 C169.94910769 203.77549036 164.71899604 198.58923901 159.51953125 193.3671875 C158.24278922 192.08857601 156.96582298 190.81018837 155.68864441 189.53201294 C152.346214 186.18578865 149.00679602 182.83657411 145.66802979 179.48669434 C142.27334199 176.08176356 138.87581451 172.67966894 135.47851562 169.27734375 C129.99259515 163.78266686 124.50836954 158.28630544 119.02648926 152.78759766 C113.24724952 146.98588284 113.24724952 146.98588284 107.43359375 141.21875 C103.54095781 137.27390284 99.81065832 133.18060932 96.07226562 129.08984375 C93.41940066 126.21953084 90.83484672 123.58086557 87.80859375 121.09375 C85.50304123 119.1459038 83.80963477 117.46283612 81.90454102 115.1875 C77.2322316 109.79149536 72.1626403 104.80058633 67.10057068 99.77540588 C65.30617665 97.99394752 63.51507591 96.20923362 61.72473145 94.42370605 C57.92347725 90.63379734 54.11829412 86.84784903 50.3125 83.0625 C45.89715815 78.67087779 41.48350752 74.27758274 37.07408142 69.88002014 C35.32200204 68.1343529 33.56690523 66.39176048 31.81164551 64.64929199 C26.81091681 59.67124594 21.90770907 54.66711428 17.32376099 49.29638672 C14.85872302 46.46822095 12.19213812 43.85655616 9.51171875 41.234375 C8.35859675 40.09387861 7.20560561 38.95324989 6.05273438 37.8125 C4.2661138 36.05081361 2.47789612 34.29080396 0.68725586 32.53320312 C-1.06314521 30.81297729 -2.80729215 29.08660188 -4.55078125 27.359375 C-5.35543571 26.57490997 -5.35543571 26.57490997 -6.17634583 25.77459717 C-10.42731377 21.55248244 -12.46985198 18.63785664 -12.5625 12.625 C-12.49360117 9.02636125 -12.28798477 7.72881963 -10.375 4.5625 C-6.89302346 1.37897859 -4.6656826 0.20400023 0 0 Z " fill="#FBFBFB" transform="translate(538.1875,278.4375)"/>
<path d="M0 0 C4.83364097 1.977146 8.22086496 4.79589316 11.83750916 8.47001648 C12.67083522 9.29843928 12.67083522 9.29843928 13.52099615 10.1435979 C15.37267003 11.98801435 17.21345946 13.84291608 19.05444336 15.69799805 C20.38321863 17.02598209 21.7126474 18.35331251 23.04267883 19.68003845 C26.64869939 23.28092917 30.24532084 26.89107595 33.84019923 30.50308585 C37.60880318 34.28674713 41.38553232 38.06228151 45.16127014 41.83882141 C51.50374098 48.18498413 57.84055088 54.53675368 64.17358398 60.89233398 C72.28837645 69.03595924 80.4123696 77.17034017 88.53935909 85.30179119 C95.53953558 92.30595788 102.53545102 99.31437623 109.53069234 106.32347131 C111.77226249 108.56912822 114.01440989 110.81420755 116.25663567 113.05920982 C119.78934686 116.59684061 123.31938098 120.13712251 126.8474102 123.67942238 C128.13851085 124.97501851 129.43043117 126.26979844 130.72325516 127.56367493 C142.68606108 139.53839918 142.68606108 139.53839918 147.5416193 145.42619038 C149.01617178 147.11967481 149.01617178 147.11967481 151.18287563 148.58458996 C151.78252667 149.05167527 152.38217772 149.51876059 153 150 C153 150.66 153 151.32 153 152 C153.99 152.33 154.98 152.66 156 153 C157.5078125 154.56640625 157.5078125 154.56640625 159.125 156.5625 C162.3318608 160.35796183 165.78524499 163.56677193 169.59375 166.75 C171.64932379 168.67209497 173.4346538 170.60952973 175.265625 172.73828125 C179.68959675 177.87222912 184.52906739 182.54849328 189.390625 187.26367188 C197.71737485 195.45637367 197.71737485 195.45637367 198.4375 201.9375 C198.26847375 206.20340057 196.75109882 208.7139653 194 212 C190.30109192 215.26789125 187.55864167 215.72986821 182.71247864 215.50973511 C179.59298705 214.92351321 178.43956035 214.07938321 176.1472168 211.93017578 C175.46114349 211.29372131 174.77507019 210.65726685 174.06820679 210.00152588 C173.38569855 209.34102234 172.70319031 208.6805188 172 208 C171.05829453 207.09359772 171.05829453 207.09359772 170.0975647 206.16888428 C168.17884481 204.29361101 166.28404475 202.39686824 164.39453125 200.4921875 C163.70743576 199.80367706 163.02034027 199.11516663 162.31242371 198.40579224 C160.14339384 196.23122673 157.97788322 194.05319614 155.8125 191.875 C154.34984371 190.40731851 152.88695496 188.93986866 151.42382812 187.47265625 C148.740504 184.78121351 146.05851136 182.08845991 143.37817383 179.39404297 C138.94449144 174.93816084 134.49631725 170.49706202 130.03909302 166.06474304 C127.4208424 163.45999169 124.80534463 160.85248306 122.18994141 158.24487305 C120.81779597 156.87775676 119.4447544 155.51153929 118.07080078 154.14624023 C116.06821306 152.15590149 114.06897873 150.16224447 112.0703125 148.16796875 C111.46591339 147.56873093 110.86151428 146.9694931 110.23880005 146.35209656 C107.35737504 143.47104424 104.5864971 140.55091254 101.94750977 137.44552612 C97.33301726 132.15117546 92.35151535 127.23498777 87.37060547 122.28881836 C86.31342698 121.23520352 85.25648793 120.18134838 84.19976807 119.12727356 C81.93842006 116.8724349 79.67557114 114.61911758 77.41155624 112.36695671 C73.82747691 108.80129271 70.2478535 105.2311775 66.66897583 101.66029358 C56.4964653 91.51184436 46.31800602 81.36937377 36.13525391 71.23120117 C30.50023842 65.6207772 24.8688574 60.00673026 19.24130929 54.38881594 C15.68839185 50.84241667 12.13102868 47.30055878 8.57023978 43.76206386 C6.35323441 41.55683292 4.14046494 39.34738894 1.92884064 37.13676262 C0.90711486 36.11717418 -0.11632044 35.09929534 -1.14163589 34.0833168 C-14.15081924 21.18798586 -14.15081924 21.18798586 -15.69921875 15.375 C-15.67049713 9.55408588 -14.59588963 6.47404128 -10.5078125 2.27734375 C-7.15675497 -0.5615055 -4.2874518 -0.28583012 0 0 Z " fill="#FBFBFB" transform="translate(290,548)"/>
<path d="M0 0 C3.69236565 1.34267842 6.39681442 3.28006882 8.9375 6.3125 C10.33622121 9.85044188 10.45686027 12.21458635 10 16 C6.74348961 23.3084328 0.98332319 28.32080506 -4.6875 33.8125 C-6.61162961 35.69043278 -8.53076206 37.57328568 -10.44921875 39.45703125 C-11.29830811 40.28178955 -12.14739746 41.10654785 -13.0222168 41.95629883 C-15.04718949 43.84384807 -15.04718949 43.84384807 -16 46 C-16.66 46 -17.32 46 -18 46 C-18.25084256 46.57602085 -18.50168512 47.1520417 -18.76012897 47.74551773 C-20.16799602 50.30547053 -21.76764924 52.01076296 -23.8379364 54.07171631 C-25.0385244 55.27426056 -25.0385244 55.27426056 -26.2633667 56.50109863 C-27.14284973 57.37182007 -28.02233276 58.2425415 -28.9284668 59.13964844 C-29.85385757 60.06372498 -30.77924835 60.98780151 -31.73268127 61.93988037 C-33.74432405 63.9485917 -35.75908113 65.95410727 -37.77631187 67.95720673 C-40.97173353 71.13032003 -44.16001389 74.31054455 -47.34736633 77.49176025 C-52.39612187 82.52913387 -57.44952388 87.56181641 -62.50497419 92.59247041 C-71.54058128 101.58381934 -80.57074543 110.58062569 -89.59555751 119.58280969 C-92.75883796 122.73772848 -95.92490482 125.88981543 -99.09330881 129.03958845 C-100.59440658 130.53255687 -102.09434142 132.02668243 -103.59379578 133.52130127 C-105.41356706 135.33509875 -107.2351502 137.1470812 -109.05899048 138.95678711 C-113.35224832 143.24205579 -117.47196465 147.60054036 -121.4263525 152.19994926 C-123.74024999 154.84675096 -126.19478197 157.30645326 -128.68823242 159.78588867 C-129.20952225 160.30571823 -129.73081207 160.82554779 -130.26789856 161.36112976 C-131.38361515 162.47308308 -132.50048358 163.58388171 -133.61842918 164.69359398 C-135.39099025 166.45323126 -137.16026789 168.2161138 -138.92878723 169.97981262 C-142.67886722 173.71855001 -146.4328904 177.45331221 -150.1875 181.1875 C-154.55258798 185.5289184 -158.91600694 189.87198791 -163.27523232 194.21929359 C-165.01251007 195.95012312 -166.75278645 197.67789779 -168.49320984 199.40556335 C-169.562272 200.47099168 -170.63119327 201.53656139 -171.69995117 202.60229492 C-172.62925949 203.52636642 -173.55856781 204.45043793 -174.51603699 205.4025116 C-177.02681071 207.94649501 -177.02681071 207.94649501 -179.14375305 210.71235657 C-181.26089442 213.32152694 -182.8795673 214.83415282 -186.26953125 215.3359375 C-192.04667069 215.42468004 -195.46993355 214.96380815 -200 211 C-202.85113661 206.72329509 -202.6004656 203.01704807 -202 198 C-199.5453696 192.64444276 -194.93042882 188.80419693 -190.73046875 184.7578125 C-188.65418156 182.66073274 -186.73527211 180.5626131 -184.81884766 178.32763672 C-181.09361576 174.05291391 -177.17301125 170.01160225 -173.16796875 166 C-172.45014725 165.2788501 -171.73232574 164.5577002 -170.99275208 163.81469727 C-169.49069473 162.30761782 -167.98731744 160.80185283 -166.48266602 159.29736328 C-164.17110539 156.98358969 -161.86769116 154.66189869 -159.56445312 152.33984375 C-158.09944695 150.87190803 -156.6339693 149.40444265 -155.16796875 147.9375 C-154.47841599 147.24076172 -153.78886322 146.54402344 -153.07841492 145.82617188 C-152.44047501 145.19130859 -151.8025351 144.55644531 -151.14526367 143.90234375 C-150.58457687 143.34023193 -150.02389008 142.77812012 -149.44621277 142.19897461 C-148 141 -148 141 -146 141 C-145.73299789 140.41576263 -145.46599579 139.83152527 -145.19090271 139.22958374 C-141.1890557 131.73740746 -133.83389263 125.69885549 -127.87109375 119.7734375 C-126.98398712 118.88779114 -126.09688049 118.00214478 -125.18289185 117.08966064 C-123.26830796 115.178864 -121.35285475 113.26899097 -119.43582153 111.36065674 C-116.39769493 108.33617324 -113.36349417 105.30777113 -110.32983398 102.27880859 C-103.34311903 95.30408181 -96.35137627 88.33440231 -89.35957336 81.36477661 C-82.94595275 74.97139465 -76.53342841 68.57692299 -70.12495899 62.17837715 C-67.11600842 59.17437505 -64.10464534 56.17281991 -61.09133911 53.17318726 C-58.76852368 50.85965429 -56.44899361 48.54283077 -54.12890625 46.2265625 C-53.30480255 45.40762512 -52.48069885 44.58868774 -51.63162231 43.74493408 C-47.43356176 39.54725608 -43.39156976 35.27909045 -39.53582478 30.76377773 C-36.91365983 27.75242109 -34.08905247 24.94620042 -31.26171875 22.12890625 C-30.65487747 21.52110825 -30.04803619 20.91331024 -29.42280579 20.28709412 C-28.15606271 19.01967731 -26.88808327 17.75349507 -25.61889648 16.48852539 C-23.67118197 14.54622735 -21.7289407 12.5985686 -19.78710938 10.65039062 C-18.54980017 9.41374125 -17.31218132 8.17740158 -16.07421875 6.94140625 C-15.49403488 6.35919815 -14.91385101 5.77699005 -14.31608582 5.17713928 C-9.6255713 0.51411503 -6.66826801 -0.86663411 0 0 Z " fill="#FBFBFB" transform="translate(728,548)"/>
<path d="M0 0 C0.75957947 -0.00467997 1.51915894 -0.00935994 2.30175596 -0.01418173 C4.84283369 -0.02613213 7.38337216 -0.01667447 9.92445374 -0.00723267 C11.74794835 -0.01129839 13.5714405 -0.01664027 15.39492798 -0.02316284 C20.34535151 -0.03684315 25.29558753 -0.03153456 30.24601436 -0.02202559 C35.42688297 -0.01443157 40.6077355 -0.02147399 45.78860474 -0.02618408 C54.49016706 -0.03164287 63.19165301 -0.02444729 71.89320374 -0.01016235 C81.95148625 0.00615925 92.00958628 0.00087968 102.06786436 -0.01564157 C110.70409676 -0.02925903 119.34027425 -0.03117466 127.97651392 -0.02332556 C133.13431543 -0.01864983 138.2920312 -0.01802139 143.44982719 -0.02793503 C148.29996333 -0.03660598 153.14986444 -0.03058034 157.9999752 -0.01325226 C159.77933105 -0.0092879 161.5587067 -0.0104206 163.33805466 -0.01704025 C165.76852349 -0.02524803 168.19824103 -0.01494378 170.62866211 0 C171.33149085 -0.00669217 172.03431958 -0.01338433 172.75844616 -0.02027929 C177.3476351 0.03438535 180.4733428 0.98324946 184.37782288 3.38095093 C186.78559611 6.27027881 187.33897687 8.07573229 187.81532288 11.81845093 C187.28661913 16.12361003 186.2043952 18.10807771 183.37782288 21.38095093 C178.78882762 24.19912067 175.36763438 24.74729365 170.02175903 24.71238708 C169.30286623 24.71197825 168.58397343 24.71156942 167.84329599 24.7111482 C165.44574995 24.70640244 163.04890962 24.68039509 160.65150452 24.65463257 C158.92801454 24.64727428 157.20451777 24.64138109 155.48101807 24.63684082 C151.77489873 24.62486197 148.06895931 24.60432888 144.36291695 24.5776844 C138.5006291 24.53741382 132.63853404 24.52740365 126.77612305 24.52363586 C110.10771851 24.50940389 93.43969382 24.47439267 76.7716217 24.36410522 C67.56167847 24.30341576 58.35236048 24.2782988 49.14222044 24.29304403 C44.27052024 24.29926695 39.40043193 24.28679506 34.52902412 24.23015022 C29.94748443 24.17693146 25.36820927 24.17001213 20.78647041 24.19835281 C19.10743821 24.20042766 17.42828288 24.18542423 15.7495842 24.15189552 C6.71599949 23.72832205 6.71599949 23.72832205 -1.10479927 27.50422478 C-2.93313416 30.06272108 -4.29103844 32.53727454 -5.62217712 35.38095093 C-6.64153261 37.11404114 -7.67247474 38.84042009 -8.71983337 40.55673218 C-10.21711791 43.13724223 -11.70183644 45.7237785 -13.17100525 48.32040405 C-19.52747236 59.22078458 -19.52747236 59.22078458 -25.96592712 61.04501343 C-30.11174829 60.96990797 -32.82887359 60.66592686 -36.12217712 58.00595093 C-38.92524765 55.06272688 -39.50778333 54.27344906 -40.01670837 50.30282593 C-39.48509974 45.01832026 -37.26262607 41.94437848 -34.30967712 37.63095093 C-33.20606395 35.95867959 -32.10589735 34.28412943 -31.00889587 32.60751343 C-30.44605896 31.75060913 -29.88322205 30.89370483 -29.30332947 30.01083374 C-26.09664321 24.99450723 -23.19301853 19.80147265 -20.27720642 14.61239624 C-15.13358474 5.55145979 -11.11231028 -0.10547396 0 0 Z " fill="#F9F9F9" transform="translate(446.62217712402344,492.6190490722656)"/>
<path d="M0 0 C1.73512414 -0.00322114 3.47024511 -0.00904118 5.20535278 -0.01725769 C9.9059249 -0.03176933 14.60563933 -0.00888049 19.30610776 0.02160144 C24.22936568 0.04799937 29.15259821 0.04266952 34.07591248 0.04151917 C42.34193225 0.04432656 50.60762113 0.07034438 58.87353516 0.11132812 C68.42632862 0.1585178 77.97875996 0.17432175 87.53166157 0.17212147 C97.70875426 0.17009409 107.88570759 0.19092171 118.06275821 0.21846128 C120.99264033 0.22485078 123.92249993 0.22698419 126.85238838 0.22817802 C131.45800747 0.23119485 136.06332336 0.24953741 140.66884232 0.27967644 C142.35788173 0.28842754 144.04695604 0.29213237 145.73601723 0.29039383 C148.04381969 0.28891749 150.35077794 0.30592702 152.65846252 0.32762146 C153.9490989 0.33264899 155.23973528 0.33767653 156.56948185 0.34285641 C161.38142677 0.8760006 164.80335669 2.22979951 167.92749023 5.97875977 C169.74886784 10.43101613 169.74886784 14.02650341 167.92749023 18.47875977 C164.84548694 22.17716372 161.44346927 23.57603221 156.690485 24.09790325 C155.45712599 24.09513787 154.22376698 24.09237249 152.95303345 24.08952332 C151.91628843 24.09336823 151.91628843 24.09336823 150.85859907 24.09729081 C148.55531218 24.10221071 146.25268882 24.08576627 143.94946289 24.06933594 C142.29342667 24.06848927 140.63738933 24.06896558 138.98135376 24.07066345 C134.49414982 24.0715233 130.00718704 24.05389927 125.52003908 24.03294158 C120.82752998 24.01417302 116.13501521 24.01242419 111.44247437 24.00886536 C102.56029633 23.99954543 93.67822923 23.97493232 84.79610002 23.94481689 C74.6825051 23.91127129 64.56890486 23.89478646 54.45526814 23.87973058 C33.65428029 23.84838274 12.85339225 23.79562322 -7.94750977 23.72875977 C-8.25207092 24.50680466 -8.55663208 25.28484955 -8.87042236 26.08647156 C-10.67103893 30.50370632 -13.2378417 34.46480988 -15.69750977 38.54125977 C-16.21055664 39.40557617 -16.72360352 40.26989258 -17.25219727 41.16040039 C-25.7080532 55.23578872 -25.7080532 55.23578872 -30.94750977 58.72875977 C-34.7243988 59.41219683 -38.41937866 59.57983072 -41.83422852 57.67797852 C-43.98992268 55.90853464 -45.69334256 54.23709417 -46.94750977 51.72875977 C-47.39048886 46.83565763 -46.43021808 44.10434831 -43.94750977 39.91235352 C-43.31135742 38.8240625 -42.67520508 37.73577148 -42.01977539 36.61450195 C-41.32965272 35.464708 -40.63888633 34.31530019 -39.94750977 33.16625977 C-39.25067614 31.99001698 -38.55471398 30.81325748 -37.85961914 29.63598633 C-36.5031368 27.34372256 -35.13790586 25.05743745 -33.76782227 22.77319336 C-32.2939999 20.30825708 -30.84498346 17.83319572 -29.41625977 15.34204102 C-28.76657227 14.2321582 -28.11688477 13.12227539 -27.44750977 11.97875977 C-26.92157227 11.07641602 -26.39563477 10.17407227 -25.85375977 9.24438477 C-24.91016602 7.99915039 -24.91016602 7.99915039 -23.94750977 6.72875977 C-23.57738297 6.22301957 -23.20725618 5.71727938 -22.82591343 5.19621372 C-16.8230822 -1.39427839 -8.19581099 -0.08807324 0 0 Z " fill="#FAFAFB" transform="translate(478.947509765625,566.271240234375)"/>
<path d="M0 0 C1.54770584 -0.01336143 1.54770584 -0.01336143 3.12667847 -0.0269928 C6.52463744 -0.04823705 9.92069178 -0.0259861 13.31860352 -0.0012207 C15.68840223 -0.00272374 18.05820045 -0.00615529 20.42799377 -0.01142883 C25.39023618 -0.01575765 30.35182816 0.00105776 35.31396484 0.03320312 C41.66385108 0.07296109 48.01251628 0.06369003 54.36244106 0.03896809 C59.25509079 0.02476144 64.14745704 0.03489104 69.04008675 0.0524807 C71.38077174 0.05831736 73.7214859 0.05704764 76.0621624 0.04845619 C79.33896848 0.04043452 82.6140069 0.06478758 85.890625 0.09765625 C87.33177925 0.08483109 87.33177925 0.08483109 88.80204773 0.07174683 C95.16504382 0.18149902 99.6417294 1.53810837 104.51000977 5.76049805 C106.82677176 9.23564104 107.20631595 11.19312545 107.04556656 15.2901268 C106.19685669 19.20498415 103.89626875 20.86123017 100.8783493 23.32868195 C96.8442613 25.76755191 93.21305032 25.58218732 88.61254883 25.34545898 C87.65529907 25.32571518 86.69804932 25.30597137 85.71179199 25.28562927 C83.64460401 25.24021375 81.57770609 25.17951753 79.51136017 25.10506439 C76.23039929 24.99333257 72.95267206 24.93639947 69.67010498 24.89556885 C60.34430092 24.77429001 51.02209144 24.59106562 41.70043945 24.28442383 C35.9847116 24.10029119 30.27374021 24.01020567 24.55522919 23.97821808 C22.38730841 23.94791299 20.21956476 23.88255392 18.05384064 23.78038788 C6.51580056 22.93598267 6.51580056 22.93598267 -3.54563904 27.58546448 C-7.25879211 32.10444438 -9.87783208 37.07672452 -12.33229828 42.36148834 C-14.08963776 46.00310858 -16.24841725 49.36091157 -18.42749023 52.76049805 C-19.09651367 53.85362305 -19.76553711 54.94674805 -20.45483398 56.07299805 C-23.43255087 60.00518464 -26.02922281 61.51703681 -30.86499023 62.32299805 C-35.04703071 61.67406073 -36.95964658 60.42186885 -40.20483398 57.85424805 C-42.20034703 54.60319943 -42.05283344 51.41401134 -41.48999023 47.76049805 C-40.05639648 44.4440918 -40.05639648 44.4440918 -38.05249023 41.19799805 C-37.69485596 40.60647949 -37.33722168 40.01496094 -36.96875 39.40551758 C-36.21004023 38.15365468 -35.44384402 36.90630188 -34.6706543 35.66333008 C-33.10430196 33.13889871 -31.58459839 30.58774276 -30.06347656 28.03588867 C-28.93382803 26.14610054 -27.79212506 24.263947 -26.65014648 22.3815918 C-25.25122569 20.06159632 -23.92198651 17.73195076 -22.61108398 15.3581543 C-22.03487305 14.31530273 -21.45866211 13.27245117 -20.86499023 12.19799805 C-20.37772461 11.28920898 -19.89045898 10.38041992 -19.38842773 9.4440918 C-13.97593919 1.7931049 -9.25085391 -0.13179219 0 0 Z " fill="#F8F8F8" transform="translate(407.489990234375,444.239501953125)"/>
<path d="M0 0 C1.7348037 -0.01279495 1.7348037 -0.01279495 3.50465393 -0.02584839 C4.76967743 -0.02494202 6.03470093 -0.02403564 7.33805847 -0.02310181 C8.68688326 -0.02908775 10.03570462 -0.03589345 11.38452148 -0.04345703 C15.04581322 -0.06111938 18.70701146 -0.06581255 22.36834168 -0.0670886 C24.65728046 -0.06851083 26.94619552 -0.07278181 29.2351284 -0.07808304 C37.22485741 -0.09658532 45.21451969 -0.10475356 53.20426941 -0.10317993 C60.64448651 -0.10197903 68.08441328 -0.12307057 75.52455693 -0.15466726 C81.91791387 -0.18084802 88.3111761 -0.19154645 94.70458621 -0.19026911 C98.52055644 -0.18975993 102.33626874 -0.19541842 106.15218544 -0.21662521 C109.74331621 -0.23603778 113.33394383 -0.23611199 116.9250927 -0.22159195 C118.86438823 -0.21851508 120.80368396 -0.23515995 122.74290466 -0.25247192 C129.46604584 -0.20405947 133.93318444 0.09338878 139.32707214 4.26742554 C142.01349633 8.29706182 142.12708618 11.53198893 141.32707214 16.26742554 C139.28988298 20.1145477 136.3689082 22.68266334 132.32707214 24.26742554 C129.69365025 24.52190113 129.69365025 24.52190113 126.64068604 24.52812195 C125.48125992 24.53520676 124.3218338 24.54229156 123.12727356 24.54959106 C121.85910797 24.54711365 120.59094238 24.54463623 119.28434753 24.54208374 C117.93227863 24.54643202 116.58021219 24.55161555 115.22814941 24.55757141 C111.55871832 24.57096022 107.88939023 24.57154023 104.21993947 24.56900811 C101.15579189 24.56793833 98.09166514 24.57282195 95.02752203 24.57761353 C87.79833603 24.58870828 80.56920199 24.5891463 73.3400116 24.58309937 C65.8838973 24.57705849 58.42797166 24.58937345 50.97188956 24.61066943 C44.5683745 24.62828611 38.16491949 24.6342867 31.76138109 24.63103169 C27.93770146 24.62921881 24.11415641 24.63185546 20.29049873 24.64574623 C16.6945117 24.65832114 13.09881874 24.65638391 9.50283623 24.64333534 C7.55601612 24.63984196 5.60918705 24.65115001 3.66239929 24.66290283 C2.50015335 24.65588852 1.33790741 24.64887421 0.14044189 24.64164734 C-0.86741332 24.64181508 -1.87526854 24.64198282 -2.91366482 24.64215565 C-7.53220177 24.01492119 -10.03295515 22.02847416 -12.98542786 18.51742554 C-15.00314759 14.6314468 -15.36734721 12.58825705 -14.67292786 8.26742554 C-11.11760905 2.12642033 -6.87999261 0.02294759 0 0 Z " fill="#F5F6F6" transform="translate(445.6729278564453,396.7325744628906)"/>
<path d="M0 0 C11.11527562 5.67808197 19.39180583 13.46915189 23.8125 25.3125 C27.13033879 37.74001177 26.30850873 51.74905865 20 63 C13.70035369 72.90343511 4.28719875 80.73793787 -7.27734375 83.5546875 C-17.74819858 85.26728069 -27.10921994 84.33440381 -36.3125 79.125 C-40.13719376 76.10082354 -42.47328275 73.61307156 -44 68.9375 C-44 66 -44 66 -42.5625 63.625 C-38.79694859 61.23708935 -36.42811616 61.57827465 -32 62 C-31.01 62.66 -30.02 63.32 -29 64 C-23.41779694 65.0479226 -18.98190865 64.44277907 -14.1875 61.375 C-8.03018624 56.72715117 -3.76770983 51.64194559 -2 44 C-1.0276685 36.76680228 -2.19143237 30.26781415 -6 24 C-10.94570069 18.43298013 -18.15887242 16.05008574 -24.92578125 13.39453125 C-27.67205424 12.1487632 -29.24126789 11.39993653 -31 9 C-31.6875 5.625 -31.6875 5.625 -31 2 C-23.86852873 -6.58774768 -8.96805224 -4.33727618 0 0 Z " fill="#FAFAFA" transform="translate(352,260)"/>
<path d="M0 0 C2.41277585 2.08325322 2.93530947 2.62802947 3.5 5.875 C2.98640044 9.08499728 2.30192928 10.67796395 -0.12109375 12.859375 C-2.58091594 14.35265583 -5.05713612 15.05291925 -7.8125 15.875 C-15.28434648 18.1634253 -20.38474398 21.96655942 -24.4375 28.6875 C-27.58140205 35.35257234 -28.39834121 42.61685872 -26.12890625 49.73046875 C-22.86354374 56.8072052 -18.52213787 60.75182689 -12.0625 64.875 C-6.84872972 66.79026255 -2.09010441 66.19590017 3.25 65.3125 C7 65 7 65 9.5 66 C11 68 11 68 11.6875 71.3125 C10.85635726 75.77044743 9.64469543 77.07823546 6.08984375 79.7109375 C-2.27032359 84.86767623 -12.41631441 85.51917873 -22 84 C-33.49106647 80.80162972 -42.10923245 72.85712213 -48.375 63 C-49.28061491 61.34976838 -50.15816833 59.68366333 -51 58 C-51.3403125 57.34 -51.680625 56.68 -52.03125 56 C-54.24232527 50.75893269 -54.27288092 45.48053403 -54.3125 39.875 C-54.31813965 39.11058594 -54.3237793 38.34617187 -54.32958984 37.55859375 C-54.15930701 24.23612642 -48.22088206 15.14313432 -39 6 C-35.83367487 3.27385909 -32.74151269 1.165718 -29 -0.6875 C-28.175 -1.10386719 -27.35 -1.52023437 -26.5 -1.94921875 C-17.84007197 -5.58909475 -7.77373302 -5.48194852 0 0 Z " fill="#FAFAFA" transform="translate(685,699)"/>
<path d="M0 0 C1.12955864 -0.0098568 1.12955864 -0.0098568 2.28193665 -0.01991272 C4.77934871 -0.03965787 7.2767006 -0.05131104 9.77416992 -0.0612793 C10.62663488 -0.06535482 11.47909985 -0.06943035 12.35739708 -0.07362938 C16.86944716 -0.09449542 21.38146678 -0.10879475 25.89355469 -0.11816406 C30.55435007 -0.12922905 35.21466808 -0.16362819 39.87529469 -0.20333576 C43.45868315 -0.22948012 47.04195751 -0.23785395 50.62543297 -0.24144554 C52.34343375 -0.24631725 54.06142924 -0.25794791 55.77933693 -0.27648354 C58.1853073 -0.30082916 60.59003794 -0.29991884 62.99609375 -0.29296875 C64.05845245 -0.31218384 64.05845245 -0.31218384 65.14227295 -0.33178711 C69.92849367 -0.28145348 72.33400759 0.79004362 75.69213867 4.17700195 C77.72680984 7.85878787 78.2874692 11.00968828 77.69213867 15.17700195 C74.8235669 19.43888001 72.5787285 21.68852692 67.69213867 23.17700195 C64.32191467 23.44442749 64.32191467 23.44442749 60.42675781 23.4675293 C59.71390121 23.47424652 59.00104462 23.48096375 58.2665863 23.48788452 C55.92008413 23.50681632 53.57386862 23.51078599 51.22729492 23.51293945 C49.58971541 23.51936988 47.95213705 23.52609843 46.31455994 23.53311157 C42.8857863 23.54507164 39.45711333 23.54879362 36.02832031 23.54760742 C31.64230401 23.54740411 27.25693475 23.57472444 22.87107182 23.60915184 C19.49007725 23.63142463 16.10923844 23.63544488 12.72817802 23.63438797 C11.11149296 23.63674266 9.49480352 23.6455588 7.87819099 23.6610527 C5.61397471 23.68072489 3.35115447 23.67487163 1.08691406 23.6628418 C-0.84238197 23.66711685 -0.84238197 23.66711685 -2.81065369 23.67147827 C-6.94841836 23.08643247 -9.08227043 21.79002798 -12.30786133 19.17700195 C-14.98907209 15.15518581 -15.12130468 11.90463804 -14.30786133 7.17700195 C-10.74763711 0.7844804 -6.81180074 0.02564185 0 0 Z " fill="#F7F8F8" transform="translate(509.307861328125,615.822998046875)"/>
<path d="M0 0 C2.16796875 1.640625 2.16796875 1.640625 4 4 C4.390625 7.015625 4.390625 7.015625 4.25 10.25 C4.21390625 11.32765625 4.1778125 12.4053125 4.140625 13.515625 C4.09421875 14.33546875 4.0478125 15.1553125 4 16 C4.73605469 15.96519531 5.47210937 15.93039062 6.23046875 15.89453125 C16.1008271 15.62071682 16.1008271 15.62071682 20 19 C21.42041821 21.84083641 21.31452272 23.85477278 21 27 C19.1329009 29.30275556 17.64352259 30.67823871 15 32 C13.12620395 32.07033769 11.24998898 32.0843022 9.375 32.0625 C8.37210938 32.05347656 7.36921875 32.04445313 6.3359375 32.03515625 C5.56507813 32.02355469 4.79421875 32.01195312 4 32 C4.04640625 32.74765625 4.0928125 33.4953125 4.140625 34.265625 C4.43234391 42.22538383 4.43234391 42.22538383 2.5 45.6875 C-1.27648494 47.67015459 -3.7480482 47.47243909 -8 47 C-9.734375 45.890625 -9.734375 45.890625 -11 44 C-11.29296875 40.86328125 -11.29296875 40.86328125 -11.1875 37.3125 C-11.16042969 36.13300781 -11.13335938 34.95351563 -11.10546875 33.73828125 C-11.07066406 32.83464844 -11.03585937 31.93101562 -11 31 C-11.89203125 31.05800781 -12.7840625 31.11601562 -13.703125 31.17578125 C-14.87359375 31.22089844 -16.0440625 31.26601563 -17.25 31.3125 C-18.41015625 31.37050781 -19.5703125 31.42851562 -20.765625 31.48828125 C-24 31 -24 31 -26.38671875 28.63671875 C-28.22217756 25.63687687 -28.77203598 24.43127101 -28 21 C-26.25 18.1875 -26.25 18.1875 -23 16 C-18.96558412 15.58029484 -15.04063742 15.7100021 -11 16 C-11.05800781 15.18015625 -11.11601563 14.3603125 -11.17578125 13.515625 C-11.54465358 4.70484581 -11.54465358 4.70484581 -8.875 1.25 C-5.52940736 -0.2046055 -3.60420593 -0.61348186 0 0 Z " fill="#F6F7F7" transform="translate(733,333)"/>
<path d="M0 0 C2.171875 1.16796875 2.171875 1.16796875 4 3 C4.390625 5.69921875 4.390625 5.69921875 4.25 8.6875 C4.21390625 9.68136719 4.1778125 10.67523437 4.140625 11.69921875 C4.07101562 12.83810547 4.07101562 12.83810547 4 14 C4.80824219 13.96519531 5.61648438 13.93039062 6.44921875 13.89453125 C7.51785156 13.86746094 8.58648437 13.84039063 9.6875 13.8125 C10.74324219 13.77769531 11.79898438 13.74289062 12.88671875 13.70703125 C16.66283227 14.06237443 19.30050942 15.30050942 22 18 C22.51260893 21.75913215 22.24705798 23.57908641 20.3125 26.875 C15.16226724 30.1789229 9.95585939 29.39240655 4 29 C4.05220703 30.13888672 4.05220703 30.13888672 4.10546875 31.30078125 C4.13253906 32.29464844 4.15960938 33.28851562 4.1875 34.3125 C4.23970703 35.79169922 4.23970703 35.79169922 4.29296875 37.30078125 C4 40 4 40 2.73828125 41.828125 C0.6693837 43.2228874 -0.51828539 43.43279978 -3 43.4375 C-3.680625 43.45683594 -4.36125 43.47617187 -5.0625 43.49609375 C-7 43 -7 43 -8.73828125 41.30078125 C-10.24551987 38.5522873 -10.31031117 36.86121629 -10.1875 33.75 C-10.16042969 32.85796875 -10.13335937 31.9659375 -10.10546875 31.046875 C-10.07066406 30.37140625 -10.03585937 29.6959375 -10 29 C-10.89203125 29.04640625 -11.7840625 29.0928125 -12.703125 29.140625 C-13.87359375 29.17671875 -15.0440625 29.2128125 -16.25 29.25 C-17.99023438 29.31960938 -17.99023438 29.31960938 -19.765625 29.390625 C-23 29 -23 29 -25.38671875 27.203125 C-27 25 -27 25 -27.5625 21.5 C-27 18 -27 18 -25.25 15.5625 C-20.28218657 13.17412816 -15.41833171 13.68889961 -10 14 C-10.04640625 13.24074219 -10.0928125 12.48148438 -10.140625 11.69921875 C-10.19476563 10.20841797 -10.19476563 10.20841797 -10.25 8.6875 C-10.29640625 7.70136719 -10.3428125 6.71523438 -10.390625 5.69921875 C-10 3 -10 3 -8.171875 1.16796875 C-5.23198711 -0.41301412 -3.29410631 -0.41176329 0 0 Z " fill="#F6F6F7" transform="translate(274,654)"/>
<path d="M0 0 C3.375 2.0625 3.375 2.0625 6 5 C6.77152986 9.32056721 6.52747866 11.19119939 4.125 14.875 C1.62545713 17.37454287 0.67824042 17.90956794 -2.8125 18.375 C-6 18 -6 18 -8.8125 15.9375 C-11.43828382 12.41144744 -12.07836758 10.38858425 -12 6 C-8.71580324 0.79058445 -6.13630292 -0.70803495 0 0 Z " fill="#EEEFEF" transform="translate(286,354)"/>
<path d="M0 0 C3 1.4375 3 1.4375 5 4 C5.77603649 7.17523327 5.78917248 9.82639922 5 13 C3.23789262 15.74863933 2.01931191 16.35310259 -1 18 C-5.26777316 18.14716459 -7.17293819 17.69982153 -10.4375 14.9375 C-12.62113076 10.83227417 -12.58771847 8.62828294 -12 4 C-9.17745974 -0.70423376 -5.08255288 -0.95612381 0 0 Z " fill="#F3F3F4" transform="translate(723,674)"/>
<path d="M0 0 C3.375 2.125 3.375 2.125 6 5 C6.625 8 6.625 8 6 11 C4.20006226 13.69990662 2.916227 15.5418865 0 17 C-3.61726636 17.40191848 -5.59782296 17.20108852 -8.875 15.5625 C-11.57234891 12.30981455 -11.72978547 10.26679951 -11.484375 6.12890625 C-11 4 -11 4 -8.875 1.4375 C-5.4455803 -0.27720985 -3.78090113 -0.69445123 0 0 Z " fill="#F5F6F7" transform="translate(330,706)"/>
<path d="M0 0 C3.71733632 2.34054509 5.68988852 3.64678628 6.6875 8 C5.75468654 12.07045872 4.33454999 13.51682448 1 16 C-2.5 17.125 -2.5 17.125 -6 17 C-8.98747189 15.02953982 -10.61681046 13.57637321 -11.48046875 10.0234375 C-11.73997051 6.27819584 -11.30440367 4.35812196 -8.875 1.5 C-5.44315756 -0.29052649 -3.81420233 -0.70056777 0 0 Z " fill="#F3F3F4" transform="translate(684,309)"/>
<path d="M0 0 C0 4.90836107 -3.69293853 7.61340999 -7 11 C-8.085981 11.95850693 -9.18823057 12.89920458 -10.3125 13.8125 C-13.14569422 15.89880609 -13.14569422 15.89880609 -15 19 C-15.66 19 -16.32 19 -17 19 C-17 19.66 -17 20.32 -17 21 C-18.50390625 22.48046875 -18.50390625 22.48046875 -20.5625 24.1875 C-24.58687892 27.60429063 -28.31430109 31.22464895 -32 35 C-32.66 35.66 -33.32 36.32 -34 37 C-34 34 -34 34 -32.70922852 32.34846497 C-32.10522217 31.75112045 -31.50121582 31.15377594 -30.87890625 30.53833008 C-30.19820068 29.8578511 -29.51749512 29.17737213 -28.81616211 28.47627258 C-28.07245361 27.74804794 -27.32874512 27.0198233 -26.5625 26.26953125 C-25.80783447 25.51911057 -25.05316895 24.76868988 -24.27563477 23.99552917 C-21.85735329 21.59407604 -19.42886229 19.20324651 -17 16.8125 C-15.36129742 15.18883881 -13.7232676 13.56449833 -12.0859375 11.93945312 C-8.06507255 7.95171262 -4.03577035 3.97265181 0 0 Z " fill="#0A0A13" transform="translate(701,604)"/>
<path d="M0 0 C0 3.60895961 -0.61432644 4.06172281 -2.97265625 6.65625 C-3.61219238 7.36007812 -4.25172852 8.06390625 -4.91064453 8.7890625 C-8.35115815 12.42978362 -11.87453576 15.9794132 -15.4375 19.5 C-16.53481445 20.59054687 -16.53481445 20.59054687 -17.65429688 21.703125 C-19.43389824 23.47109499 -21.21580918 25.23666378 -23 27 C-23.66 26.67 -24.32 26.34 -25 26 C-24.08476562 25.09636719 -23.16953125 24.19273437 -22.2265625 23.26171875 C-21.02590942 22.07044577 -19.82539585 20.87903217 -18.625 19.6875 C-18.02171875 19.09259766 -17.4184375 18.49769531 -16.796875 17.88476562 C-16.21679688 17.30791016 -15.63671875 16.73105469 -15.0390625 16.13671875 C-14.50490723 15.60780029 -13.97075195 15.07888184 -13.42041016 14.53393555 C-11.78498535 12.8489902 -11.78498535 12.8489902 -10 10 C-9.34 10 -8.68 10 -8 10 C-7.690625 9.195625 -7.690625 9.195625 -7.375 8.375 C-5.42003056 4.9982346 -2.81776305 2.69525161 0 0 Z " fill="#CFD3D7" transform="translate(304,443)"/>
<path d="M0 0 C0.33 0.66 0.66 1.32 1 2 C-1.54203557 5.21492733 -3.80613043 7.84248097 -7 10.4375 C-9.51490349 12.58564673 -10.77141384 14.00597531 -12.5 16.6875 C-14.7913605 20.1208089 -16.89802594 21.14144729 -21 22 C-16.61557474 16.74825074 -11.99157907 11.86777527 -7.125 7.0625 C-6.43664062 6.37865234 -5.74828125 5.69480469 -5.0390625 4.99023438 C-3.36166489 3.32448536 -1.68196209 1.6611378 0 0 Z " fill="#15141A" transform="translate(583,723)"/>
<path d="M0 0 C0.33 0.99 0.66 1.98 1 3 C-3.62 7.62 -8.24 12.24 -13 17 C-13.66 16.67 -14.32 16.34 -15 16 C-14.25556641 15.27296875 -14.25556641 15.27296875 -13.49609375 14.53125 C-8.76945304 9.867392 -4.3033455 5.05643097 0 0 Z " fill="#EBEBEF" transform="translate(547,722)"/>
<path d="M0 0 C0 0.33 0 0.66 0 1 C-0.928125 1.268125 -1.85625 1.53625 -2.8125 1.8125 C-6.6075441 3.09659434 -6.6075441 3.09659434 -9 6 C-9.24222254 8.71827521 -9.13476191 11.25984115 -9 14 C-9.66 13.67 -10.32 13.34 -11 13 C-11.29354833 9.94709737 -11.41409388 7.04542461 -11 4 C-7.70034726 0.02100699 -5.03973765 -0.4688128 0 0 Z " fill="#CACBCF" transform="translate(330,706)"/>
<path d="M0 0 C0.33 0.99 0.66 1.98 1 3 C-0.65 4.32 -2.3 5.64 -4 7 C-4.66 6.67 -5.32 6.34 -6 6 C-4.02 4.02 -2.04 2.04 0 0 Z " fill="#C1C2C8" transform="translate(547,722)"/>
<path d="M0 0 C0.33 0.66 0.66 1.32 1 2 C-1.3125 4.5 -1.3125 4.5 -4 7 C-4.99 7 -5.98 7 -7 7 C-4.69 4.69 -2.38 2.38 0 0 Z " fill="#0D0C12" transform="translate(591,715)"/>
<path d="M0 0 C0.66 0 1.32 0 2 0 C0.50902342 3.7952131 -1.75700849 5.61042731 -5 8 C-3.63055898 5.05043472 -2.12169591 2.47531189 0 0 Z " fill="#D2D1D8" transform="translate(434,496)"/>
</svg>
